<svg xmlns="http://www.w3.org/2000/svg" enable-background="new 0 0 60 60" viewBox="0 0 60 60" id="Github">
  <path id="Captions" fill="#ffffff" d="M50,60H10C4.477,60,0,55.523,0,50V10C0,4.477,4.477,0,10,0h40c5.523,0,10,4.477,10,10v40
		C60,55.523,55.523,60,50,60z" class="colorffffff svgShape"></path>
  <g id="Icons" fill="#000000" class="color000000 svgShape">
    <path fill="#c9c9c9" d="M30,9C18.42,9,9,18.42,9,30c0,9.494,6.337,17.527,15,20.116V44c0-1.585,0.619-3.023,1.623-4.095
		C20.199,39.226,16,34.608,16,29c0-2.131,0.616-4.113,1.664-5.798C16.74,20.802,16.846,18.401,18,16
		c2.578-0.198,4.681,0.681,6.455,2.308C25.273,18.114,26.123,18,27,18h6c0.877,0,1.727,0.114,2.545,0.308
		C37.319,16.681,39.422,15.802,42,16c1.154,2.401,1.26,4.802,0.336,7.202C43.384,24.887,44,26.869,44,29
		c0,5.608-4.199,10.226-9.623,10.905C35.381,40.977,36,42.415,36,44v6.116C44.663,47.527,51,39.494,51,30C51,18.42,41.58,9,30,9z" class="colorc3b5de svgShape"></path>
    <path fill="#868686" d="M36,54.244c-0.22,0-0.436-0.072-0.613-0.209C35.143,53.845,35,53.553,35,53.244V44
		c0-1.268-0.48-2.479-1.354-3.412c-0.257-0.274-0.338-0.67-0.21-1.023s0.443-0.606,0.816-0.652C39.239,38.289,43,34.027,43,29
		c0-1.856-0.523-3.679-1.514-5.27c-0.166-0.266-0.197-0.595-0.084-0.888c0.367-0.955,0.554-1.917,0.554-2.859
		c0-0.994-0.208-2.004-0.618-3.011c-1.89,0.03-3.584,0.667-5.118,2.072c-0.245,0.224-0.584,0.312-0.906,0.236
		C34.528,19.094,33.75,19,33,19h-6c-0.75,0-1.528,0.094-2.314,0.281c-0.322,0.077-0.662-0.012-0.906-0.236
		c-1.534-1.407-3.24-2.057-5.118-2.073c-0.41,1.005-0.618,2.016-0.618,3.011c0,0.943,0.187,1.906,0.554,2.86
		c0.113,0.293,0.082,0.622-0.084,0.888C17.523,25.321,17,27.144,17,29c0,5.027,3.761,9.289,8.748,9.913
		c0.373,0.046,0.688,0.299,0.816,0.652s0.046,0.749-0.21,1.023C25.48,41.521,25,42.732,25,44v9.244c0,0.309-0.143,0.601-0.387,0.791
		c-0.245,0.189-0.563,0.255-0.862,0.178C12.71,51.371,5,41.414,5,30C5,16.215,16.215,5,30,5c5.729,0,11.327,1.988,15.763,5.595
		c0.429,0.349,0.494,0.979,0.145,1.407c-0.348,0.429-0.977,0.494-1.407,0.145C40.421,8.828,35.271,7,30,7C17.318,7,7,17.318,7,30
		c0,10.065,6.516,18.898,16,21.917V44c0-1.208,0.311-2.38,0.894-3.416C18.725,39.203,15,34.481,15,29
		c0-2.067,0.54-4.098,1.564-5.903c-0.345-1.034-0.52-2.079-0.52-3.114c0-1.476,0.355-2.961,1.055-4.417
		c0.155-0.321,0.469-0.536,0.825-0.563c2.558-0.197,4.819,0.553,6.813,2.221C25.5,17.075,26.26,17,27,17h6
		c0.74,0,1.5,0.075,2.264,0.224c1.993-1.667,4.252-2.417,6.812-2.221c0.356,0.027,0.671,0.242,0.826,0.564
		c0.7,1.456,1.055,2.942,1.055,4.417c0,1.034-0.175,2.079-0.52,3.113C44.46,24.902,45,26.933,45,29
		c0,5.481-3.725,10.203-8.894,11.584C36.689,41.62,37,42.792,37,44v7.917C46.484,48.898,53,40.065,53,30
		c0-5.603-2.038-11.001-5.738-15.2c-0.365-0.415-0.325-1.046,0.089-1.412c0.413-0.366,1.045-0.325,1.412,0.089
		C52.785,18.042,55,23.91,55,30c0,11.414-7.71,21.371-18.75,24.212C36.167,54.234,36.083,54.244,36,54.244z" class="color827399 svgShape"></path>
    <path fill="#868686" d="M24,45h-2c-1.557,0-3.021-0.606-4.121-1.707l-1.172-1.172C15.984,41.398,15.022,41,14,41c-0.552,0-1-0.448-1-1
		s0.448-1,1-1c1.557,0,3.021,0.606,4.121,1.707l1.172,1.172C20.016,42.602,20.978,43,22,43h2c0.552,0,1,0.448,1,1S24.552,45,24,45z" class="color827399 svgShape"></path>
  </g>
</svg>
